<svg xmlns="http://www.w3.org/2000/svg" viewBox="0 0 100 100" width="100" height="100">

  <!-- Outer octagon — gold -->
  <polygon
    points="50,6 74,14 86,38 86,62 74,86 50,94 26,86 14,62 14,38 26,14"
    fill="none"
    stroke="#B8861F"
    stroke-width="5"
    stroke-linejoin="round"
    opacity="0.8"
  />

  <!-- Veil — dense organic dot scatter -->

  <!-- y ≈ 12 -->
  <circle cx="36" cy="11" r="1.1" fill="#B8861F" opacity="1.3"/>
  <circle cx="43" cy="13" r="1.4" fill="#B8861F" opacity="0.25"/>
  <circle cx="49" cy="11" r="1.0" fill="#B8861F" opacity="1.35"/>
  <circle cx="55" cy="13" r="1.3" fill="#B8861F" opacity="0.28"/>
  <circle cx="62" cy="12" r="1.1" fill="#B8861F" opacity="0.3"/>

  <!-- y ≈ 17 -->
  <circle cx="27" cy="17" r="1.2" fill="#B8861F" opacity="0.3"/>
  <circle cx="33" cy="16" r="1.5" fill="#B8861F" opacity="1.25"/>
  <circle cx="40" cy="18" r="1.0" fill="#B8861F" opacity="0.4"/>
  <circle cx="46" cy="16" r="1.3" fill="#B8861F" opacity="1.3"/>
  <circle cx="52" cy="18" r="1.6" fill="#B8861F" opacity="0.22"/>
  <circle cx="59" cy="17" r="1.1" fill="#B8861F" opacity="1.35"/>
  <circle cx="65" cy="16" r="1.4" fill="#B8861F" opacity="1.28"/>
  <circle cx="71" cy="18" r="1.2" fill="#B8861F" opacity="0.3"/>

  <!-- y ≈ 22 -->
  <circle cx="24" cy="23" r="1.3" fill="#B8861F" opacity="1.28"/>
  <circle cx="30" cy="21" r="1.0" fill="#B8861F" opacity="0.35"/>
  <circle cx="36" cy="23" r="1.7" fill="#B8861F" opacity="1.22"/>
  <circle cx="42" cy="21" r="1.2" fill="#B8861F" opacity="0.38"/>
  <circle cx="48" cy="23" r="1.4" fill="#B8861F" opacity="1.28"/>
  <circle cx="54" cy="22" r="1.0" fill="#B8861F" opacity="0.4"/>
  <circle cx="60" cy="23" r="1.5" fill="#B8861F" opacity="1.25"/>
  <circle cx="66" cy="21" r="1.2" fill="#B8861F" opacity="0.32"/>
  <circle cx="72" cy="23" r="1.1" fill="#B8861F" opacity="1.28"/>
  <circle cx="76" cy="22" r="0.9" fill="#B8861F" opacity="0.3"/>

  <!-- y ≈ 28 -->
  <circle cx="21" cy="28" r="1.4" fill="#B8861F" opacity="1.3"/>
  <circle cx="27" cy="27" r="1.1" fill="#B8861F" opacity="1.35"/>
  <circle cx="33" cy="29" r="1.6" fill="#B8861F" opacity="0.22"/>
  <circle cx="39" cy="27" r="1.0" fill="#B8861F" opacity="1.4"/>
  <circle cx="45" cy="29" r="1.3" fill="#B8861F" opacity="0.3"/>
  <circle cx="51" cy="27" r="1.7" fill="#B8861F" opacity="1.2"/>
  <circle cx="57" cy="28" r="1.1" fill="#B8861F" opacity="0.35"/>
  <circle cx="63" cy="27" r="1.4" fill="#B8861F" opacity="1.28"/>
  <circle cx="69" cy="29" r="1.2" fill="#B8861F" opacity="0.3"/>
  <circle cx="75" cy="27" r="1.0" fill="#B8861F" opacity="1.32"/>
  <circle cx="79" cy="29" r="1.3" fill="#B8861F" opacity="0.25"/>

  <!-- y ≈ 33 -->
  <circle cx="18" cy="34" r="1.2" fill="#B8861F" opacity="1.3"/>
  <circle cx="24" cy="32" r="1.5" fill="#B8861F" opacity="1.28"/>
  <circle cx="30" cy="34" r="1.0" fill="#B8861F" opacity="0.38"/>
  <circle cx="36" cy="32" r="1.8" fill="#B8861F" opacity="0.2"/>
  <circle cx="42" cy="34" r="1.3" fill="#B8861F" opacity="1.32"/>
  <circle cx="48" cy="32" r="1.1" fill="#B8861F" opacity="0.4"/>
  <circle cx="55" cy="34" r="1.6" fill="#B8861F" opacity="1.22"/>
  <circle cx="61" cy="32" r="1.2" fill="#B8861F" opacity="0.35"/>
  <circle cx="67" cy="34" r="1.0" fill="#B8861F" opacity="1.3"/>
  <circle cx="73" cy="32" r="1.4" fill="#B8861F" opacity="1.25"/>
  <circle cx="79" cy="34" r="1.1" fill="#B8861F" opacity="0.3"/>
  <circle cx="83" cy="33" r="0.9" fill="#B8861F" opacity="1.28"/>

  <!-- y ≈ 38-40 -->
  <circle cx="16" cy="39" r="1.3" fill="#B8861F" opacity="1.3"/>
  <circle cx="22" cy="38" r="1.1" fill="#B8861F" opacity="1.35"/>
  <circle cx="28" cy="40" r="1.5" fill="#B8861F" opacity="0.25"/>
  <circle cx="34" cy="38" r="1.2" fill="#B8861F" opacity="1.38"/>
  <circle cx="40" cy="40" r="1.0" fill="#B8861F" opacity="0.42"/>
  <circle cx="46" cy="38" r="1.7" fill="#B8861F" opacity="1.2"/>
  <circle cx="58" cy="39" r="1.3" fill="#B8861F" opacity="0.32"/>
  <circle cx="64" cy="38" r="1.1" fill="#B8861F" opacity="1.35"/>
  <circle cx="70" cy="40" r="1.5" fill="#B8861F" opacity="0.25"/>
  <circle cx="76" cy="38" r="1.2" fill="#B8861F" opacity="1.3"/>
  <circle cx="82" cy="40" r="1.0" fill="#B8861F" opacity="1.28"/>

  <!-- y ≈ 44 -->
  <circle cx="16" cy="44" r="1.4" fill="#B8861F" opacity="1.28"/>
  <circle cx="22" cy="45" r="1.2" fill="#37ACA8" opacity="0.35"/>
  <circle cx="28" cy="43" r="1.0" fill="#B8861F" opacity="0.4"/>
  <circle cx="34" cy="45" r="1.6" fill="#37ACA8" opacity="1.22"/>
  <circle cx="40" cy="43" r="1.3" fill="#B8861F" opacity="0.35"/>
  <circle cx="63" cy="44" r="1.1" fill="#37ACA8" opacity="1.38"/>
  <circle cx="69" cy="45" r="1.5" fill="#37ACA8" opacity="1.25"/>
  <circle cx="75" cy="43" r="1.2" fill="#B8861F" opacity="0.3"/>
  <circle cx="81" cy="45" r="1.0" fill="#B8861F" opacity="0.32"/>
  <circle cx="84" cy="43" r="1.3" fill="#B8861F" opacity="0.25"/>

  <!-- y ≈ 50 — sparse center -->
  <circle cx="16" cy="50" r="1.3" fill="#37ACA8" opacity="1.3"/>
  <circle cx="22" cy="51" r="1.1" fill="#B8861F" opacity="0.35"/>
  <circle cx="28" cy="49" r="1.5" fill="#B8861F" opacity="0.25"/>
  <circle cx="34" cy="51" r="1.2" fill="#B8861F" opacity="1.38"/>
  <circle cx="40" cy="49" r="1.0" fill="#B8861F" opacity="0.4"/>
  <circle cx="64" cy="50" r="1.4" fill="#B8861F" opacity="0.28"/>
  <circle cx="70" cy="51" r="1.2" fill="#B8861F" opacity="1.32"/>
  <circle cx="76" cy="49" r="1.0" fill="#B8861F" opacity="0.35"/>
  <circle cx="82" cy="51" r="1.3" fill="#B8861F" opacity="0.28"/>
  <circle cx="84" cy="50" r="0.9" fill="#B8861F" opacity="0.3"/>

  <!-- y ≈ 56 -->
  <circle cx="16" cy="56" r="1.4" fill="#37ACA8" opacity="1.28"/>
  <circle cx="22" cy="55" r="1.1" fill="#B8861F" opacity="1.35"/>
  <circle cx="28" cy="57" r="1.6" fill="#B8861F" opacity="0.22"/>
  <circle cx="34" cy="55" r="1.2" fill="#B8861F" opacity="0.38"/>
  <circle cx="40" cy="57" r="1.0" fill="#B8861F" opacity="1.42"/>
  <circle cx="63" cy="56" r="1.3" fill="#B8861F" opacity="1.3"/>
  <circle cx="69" cy="55" r="1.5" fill="#B8861F" opacity="0.25"/>
  <circle cx="75" cy="57" r="1.2" fill="#B8861F" opacity="1.3"/>
  <circle cx="81" cy="55" r="1.0" fill="#B8861F" opacity="0.32"/>
  <circle cx="84" cy="57" r="1.3" fill="#B8861F" opacity="0.25"/>

  <!-- y ≈ 61-63 -->
  <circle cx="16" cy="61" r="1.3" fill="#37ACA8" opacity="0.3"/>
  <circle cx="22" cy="62" r="1.5" fill="#B8861F" opacity="0.25"/>
  <circle cx="28" cy="60" r="1.1" fill="#B8861F" opacity="1.38"/>
  <circle cx="34" cy="62" r="1.7" fill="#B8861F" opacity="0.2"/>
  <circle cx="40" cy="60" r="1.3" fill="#B8861F" opacity="0.35"/>
  <circle cx="46" cy="62" r="1.0" fill="#B8861F" opacity="1.42"/>
  <circle cx="58" cy="61" r="1.2" fill="#B8861F" opacity="0.32"/>
  <circle cx="64" cy="62" r="1.4" fill="#B8861F" opacity="0.28"/>
  <circle cx="70" cy="60" r="1.1" fill="#B8861F" opacity="1.35"/>
  <circle cx="76" cy="62" r="1.5" fill="#B8861F" opacity="0.25"/>
  <circle cx="82" cy="60" r="1.0" fill="#B8861F" opacity="1.3"/>

  <!-- y ≈ 67 -->
  <circle cx="18" cy="67" r="1.2" fill="#B8861F" opacity="0.3"/>
  <circle cx="24" cy="68" r="1.4" fill="#B8861F" opacity="1.28"/>
  <circle cx="30" cy="66" r="1.0" fill="#B8861F" opacity="0.38"/>
  <circle cx="36" cy="68" r="1.6" fill="#B8861F" opacity="1.22"/>
  <circle cx="42" cy="66" r="1.3" fill="#B8861F" opacity="0.35"/>
  <circle cx="48" cy="68" r="1.1" fill="#B8861F" opacity="0.4"/>
  <circle cx="54" cy="66" r="1.5" fill="#37ACA8" opacity="1.25"/>
  <circle cx="60" cy="68" r="1.2" fill="#B8861F" opacity="1.32"/>
  <circle cx="66" cy="66" r="1.0" fill="#B8861F" opacity="0.35"/>
  <circle cx="72" cy="68" r="1.4" fill="#B8861F" opacity="0.25"/>
  <circle cx="78" cy="66" r="1.1" fill="#B8861F" opacity="1.3"/>
  <circle cx="83" cy="67" r="0.9" fill="#B8861F" opacity="0.28"/>

  <!-- y ≈ 72-74 -->
  <circle cx="21" cy="73" r="1.3" fill="#B8861F" opacity="1.3"/>
  <circle cx="27" cy="72" r="1.1" fill="#B8861F" opacity="0.35"/>
  <circle cx="33" cy="74" r="1.5" fill="#B8861F" opacity="0.25"/>
  <circle cx="39" cy="72" r="1.2" fill="#B8861F" opacity="1.38"/>
  <circle cx="45" cy="74" r="1.0" fill="#B8861F" opacity="1.42"/>
  <circle cx="51" cy="72" r="1.6" fill="#B8861F" opacity="0.22"/>
  <circle cx="57" cy="74" r="1.3" fill="#B8861F" opacity="0.3"/>
  <circle cx="63" cy="72" r="1.1" fill="#B8861F" opacity="1.35"/>
  <circle cx="69" cy="74" r="1.4" fill="#B8861F" opacity="0.25"/>
  <circle cx="75" cy="72" r="1.2" fill="#B8861F" opacity="1.3"/>
  <circle cx="79" cy="74" r="1.0" fill="#B8861F" opacity="0.28"/>

  <!-- y ≈ 78 -->
  <circle cx="24" cy="78" r="1.2" fill="#B8861F" opacity="0.3"/>
  <circle cx="30" cy="79" r="1.4" fill="#B8861F" opacity="0.25"/>
  <circle cx="36" cy="77" r="1.0" fill="#B8861F" opacity="1.38"/>
  <circle cx="42" cy="79" r="1.5" fill="#B8861F" opacity="1.22"/>
  <circle cx="48" cy="77" r="1.3" fill="#B8861F" opacity="0.35"/>
  <circle cx="54" cy="79" r="1.1" fill="#37ACA8" opacity="1.4"/>
  <circle cx="60" cy="77" r="1.6" fill="#B8861F" opacity="0.22"/>
  <circle cx="66" cy="79" r="1.2" fill="#B8861F" opacity="1.3"/>
  <circle cx="72" cy="77" r="1.0" fill="#B8861F" opacity="0.32"/>
  <circle cx="76" cy="79" r="1.3" fill="#B8861F" opacity="0.25"/>

  <!-- y ≈ 83 -->
  <circle cx="27" cy="83" r="1.3" fill="#B8861F" opacity="1.28"/>
  <circle cx="33" cy="82" r="1.1" fill="#B8861F" opacity="0.35"/>
  <circle cx="39" cy="84" r="1.5" fill="#B8861F" opacity="0.25"/>
  <circle cx="45" cy="82" r="1.2" fill="#37ACA8" opacity="1.38"/>
  <circle cx="51" cy="84" r="1.0" fill="#B8861F" opacity="0.4"/>
  <circle cx="57" cy="82" r="1.4" fill="#B8861F" opacity="1.28"/>
  <circle cx="63" cy="84" r="1.2" fill="#B8861F" opacity="0.3"/>
  <circle cx="69" cy="82" r="1.1" fill="#B8861F" opacity="1.32"/>
  <circle cx="73" cy="83" r="0.9" fill="#B8861F" opacity="0.28"/>

  <!-- y ≈ 88 -->
  <circle cx="35" cy="88" r="1.2" fill="#B8861F" opacity="1.28"/>
  <circle cx="41" cy="87" r="1.4" fill="#B8861F" opacity="0.25"/>
  <circle cx="47" cy="89" r="1.1" fill="#B8861F" opacity="1.35"/>
  <circle cx="53" cy="87" r="1.3" fill="#B8861F" opacity="1.28"/>
  <circle cx="59" cy="89" r="1.0" fill="#B8861F" opacity="0.3"/>
  <circle cx="65" cy="87" r="1.2" fill="#B8861F" opacity="1.25"/>

  <!-- Center ring -->
  <circle cx="50" cy="50" r="10" fill="none" stroke="#37ACA8" stroke-width="10" opacity="0.4"/>
  <circle cx="50" cy="50" r="11" fill="none" stroke="#37ACA8" stroke-width="1.1" opacity="0.4"/>
  <circle cx="50" cy="50" r="13" fill="none" stroke="#37ACA8" stroke-width="1.1" opacity="0.4"/>
  <circle cx="50" cy="50" r="16" fill="none" stroke="#B8861F" stroke-width="2.3" opacity="0.6"/>
  <circle cx="50" cy="50" r="21" fill="none" stroke="#B8861F" stroke-width="1.1" opacity="0.7"/>
  <circle cx="50" cy="50" r="29" fill="none" stroke="#B8861F" stroke-width="1.1" opacity="0.3"/>




  <!-- Center dot — solid gold -->
  <circle cx="50" cy="50" r="5.5" fill="#37ACA8" opacity="0.3"/>

</svg>
